<svg width="27" height="26" viewBox="0 0 27 26" fill="none" xmlns="http://www.w3.org/2000/svg">
<g clip-path="url(#clip0_713_600)">
<rect x="0.813354" y="0.706177" width="25.2881" height="25.2881" rx="12.644" fill="#7B6FC5"/>
<path fill-rule="evenodd" clip-rule="evenodd" d="M10.8354 7.15955C9.60722 9.28717 10.3362 12.0078 12.4638 13.2366C13.692 11.109 12.9631 8.38833 10.8354 7.15955ZM13.4267 14.9044C13.4267 17.3614 11.435 19.3531 8.97802 19.3531C8.97802 16.8961 10.9697 14.9044 13.4267 14.9044H13.4267ZM12.4638 13.2366C10.3361 12.0083 7.6155 12.7373 6.38672 14.8649C8.51434 16.0931 11.235 15.3642 12.4638 13.2366ZM20.4667 14.8649C18.3386 16.0931 15.6179 15.3642 14.3897 13.2366C14.3897 13.2366 14.3897 13.2366 14.3897 13.2366C13.1614 11.1084 13.8904 8.38778 16.018 7.15955C17.2457 9.28674 16.518 12.0059 14.3926 13.2349C16.5198 12.009 19.239 12.7383 20.4667 14.8649Z" fill="white"/>
</g>
<defs>
<clipPath id="clip0_713_600">
<rect width="25.2267" height="25.2267" fill="white" transform="translate(0.815552 0.706543)"/>
</clipPath>
</defs>
</svg>
