<svg width="29" height="28" viewBox="0 0 29 28" fill="none" xmlns="http://www.w3.org/2000/svg">
<path fill-rule="evenodd" clip-rule="evenodd" d="M24.2646 7.03241L18.4059 10.4437L18.4048 10.4426C17.1416 11.179 15.5488 10.2813 15.5385 8.82885L15.4897 2.08966C15.4794 0.637167 17.0586 -0.281917 18.332 0.435307L24.2408 3.76318C25.5153 4.4804 25.5278 6.29714 24.2646 7.03241ZM10.5564 10.5001L4.64766 7.17223L4.64879 7.17336C3.37427 6.45613 3.36177 4.63939 4.62492 3.90412L10.4836 0.492803C11.7468 -0.243592 13.3396 0.654065 13.3499 2.10656L13.3988 8.84575C13.409 10.2982 11.8298 11.2173 10.5564 10.5001ZM28.2166 10.4787C28.2064 9.02619 26.6136 8.12853 25.3504 8.86492L19.4917 12.2762C18.2285 13.0115 18.241 14.8283 19.5156 15.5455L25.4243 18.8734C26.6977 19.5906 28.2769 18.6715 28.2667 17.219L28.2178 10.4798L28.2166 10.4787ZM18.4559 17.3927L24.3646 20.7206L24.3635 20.7195C25.638 21.4367 25.6505 23.2534 24.3874 23.9887L18.5287 27.4C17.2655 28.1364 15.6727 27.2388 15.6624 25.7863L15.6135 19.0471C15.6033 17.5946 17.1825 16.6755 18.4559 17.3927ZM10.6064 17.4491L4.74768 20.8604C3.48452 21.5957 3.49703 23.4124 4.77155 24.1297L10.6803 27.4575C11.9537 28.1747 13.5329 27.2557 13.5227 25.8032L13.4738 19.064C13.4635 17.6115 11.8707 16.7138 10.6075 17.4502L10.6064 17.4491ZM3.58913 9.01949L9.49786 12.3474L9.49673 12.3462C10.7712 13.0635 10.7838 14.8802 9.5206 15.6155L3.66189 19.0268C2.39874 19.7632 0.805874 18.8655 0.795642 17.413L0.746754 10.6738C0.736521 9.22135 2.31575 8.30227 3.58913 9.01949Z" fill="white"/>
</svg>
