<svg width="56" height="48" viewBox="0 0 56 48" fill="none" xmlns="http://www.w3.org/2000/svg">
<path fill-rule="evenodd" clip-rule="evenodd" d="M17.6693 0.15979C12.868 8.47685 15.7175 19.1121 24.0346 23.9155C28.8358 15.5984 25.9864 4.9632 17.6693 0.15979ZM27.7988 30.4635C27.7835 40.0551 20.0036 47.8255 10.4084 47.8255C10.4084 38.2208 18.1941 30.4351 27.7988 30.435L27.7988 30.4635ZM27.7988 30.4635L27.7989 30.435C37.4035 30.4351 45.1892 38.2208 45.1892 47.8255C35.594 47.8255 27.8142 40.0551 27.7988 30.4635ZM24.0345 23.9155C15.7174 19.1142 5.08222 21.9637 0.278809 30.2807C8.59587 35.082 19.2311 32.2325 24.0345 23.9155ZM55.3188 30.2807C46.9996 35.082 36.3644 32.2325 31.5631 23.9155C31.5631 23.9155 31.5631 23.9155 31.5631 23.9155C26.7618 15.5963 29.6113 4.96106 37.9284 0.15979C42.7276 8.47538 39.8826 19.105 31.5739 23.9092C39.8894 19.1167 50.5196 21.9673 55.3188 30.2807Z" fill="white"/>
</svg>
