<svg width="28" height="28" viewBox="0 0 28 28" fill="none" xmlns="http://www.w3.org/2000/svg">
<path fill-rule="evenodd" clip-rule="evenodd" d="M15.487 13.8217C22.2055 14.5906 27.4579 20.2591 27.5333 27.1966C20.0873 27.2781 13.9735 21.3651 13.7776 13.947H13.7752V13.8399C13.7752 13.8223 13.7746 13.8043 13.774 13.7864C13.7734 13.7685 13.7727 13.7505 13.7727 13.7329H13.7752C13.808 6.31358 19.7916 0.267919 27.2377 0.186401C27.3131 7.12389 22.1861 12.9055 15.487 13.8217ZM13.7703 13.7329H13.7727L13.7715 13.7341V13.8412C13.7715 13.8588 13.7721 13.8768 13.7727 13.8947C13.7733 13.9127 13.7739 13.9306 13.7739 13.9483H13.7715C13.7386 21.3676 7.75501 27.4132 0.308958 27.4947C0.233524 20.5573 5.35938 14.7756 12.0596 13.8595C5.34113 13.0905 0.0887396 7.42202 0.0133057 0.484539C7.45936 0.403022 13.5732 6.31607 13.7703 13.7329Z" fill="white"/>
</svg>
