<svg width="28" height="28" viewBox="0 0 28 28" fill="none" xmlns="http://www.w3.org/2000/svg">
<path d="M21.3409 13.9472C24.9058 13.6839 27.7148 10.7082 27.7148 7.07686C27.7148 3.44555 24.6312 0.186523 20.8257 0.186523C17.3323 0.186523 14.4468 2.78623 13.998 6.15556C13.548 2.78623 10.6625 0.186523 7.16912 0.186523C3.36483 0.186523 0.280029 3.27132 0.280029 7.07561C0.280029 10.8799 3.09032 13.6827 6.65394 13.9459C3.09032 14.2104 0.280029 17.1849 0.280029 20.8174C0.280029 24.45 3.36483 27.7065 7.16912 27.7065C10.6625 27.7065 13.5468 25.1068 13.9968 21.7375C14.4468 25.1068 17.3323 27.7065 20.8244 27.7065C24.63 27.7065 27.7135 24.6217 27.7135 20.8174C27.7135 17.0131 24.9032 14.2104 21.3396 13.9472H21.3409ZM20.8257 3.95321C22.5505 3.95321 23.9481 5.35083 23.9481 7.07561C23.9481 8.80039 22.5505 10.198 20.8257 10.198C19.1009 10.198 17.7033 8.80039 17.7033 7.07561C17.7033 5.35083 19.1009 3.95321 20.8257 3.95321ZM4.04672 7.07561C4.04672 5.35083 5.44434 3.95321 7.16912 3.95321C8.89389 3.95321 10.2915 5.35083 10.2915 7.07561C10.2915 8.80039 8.89389 10.198 7.16912 10.198C5.44434 10.198 4.04672 8.80039 4.04672 7.07561ZM7.16912 23.9398C5.44434 23.9398 4.04672 22.5422 4.04672 20.8174C4.04672 19.0927 5.44434 17.695 7.16912 17.695C8.89389 17.695 10.2915 19.0927 10.2915 20.8174C10.2915 22.5422 8.89389 23.9398 7.16912 23.9398ZM13.998 19.8961C13.5706 16.6935 10.9433 14.1866 7.68429 13.9459C10.9421 13.7052 13.5693 11.1983 13.998 7.99566C14.4255 11.1983 17.0527 13.7052 20.3118 13.9459C17.054 14.1866 14.4267 16.6935 13.998 19.8961ZM20.8257 23.9398C19.1009 23.9398 17.7033 22.5422 17.7033 20.8174C17.7033 19.0927 19.1009 17.695 20.8257 17.695C22.5505 17.695 23.9481 19.0927 23.9481 20.8174C23.9481 22.5422 22.5505 23.9398 20.8257 23.9398Z" fill="white"/>
</svg>
