<svg width="28" height="27" viewBox="0 0 28 27" fill="none" xmlns="http://www.w3.org/2000/svg">
<path d="M28 14.235L18.7956 15.219L23.0492 13.6789C25.7408 12.7047 27.1331 9.73293 26.1589 7.04135L25.7867 6.01244L18.9182 12.2187L21.4544 8.47307C23.059 6.1022 22.4384 2.87975 20.0686 1.27509L19.1634 0.662121L17.2545 9.7198L17.1045 5.19807C17.0093 2.33683 14.6132 0.0951266 11.752 0.189261L10.6585 0.225382L14.4381 8.67556L11.659 5.10613C9.89996 2.84691 6.64357 2.44191 4.38545 4.19981L3.52291 4.87189L11.5473 9.48556L7.20072 8.23116C4.45004 7.43759 1.57675 9.02364 0.783182 11.7732L0.47998 12.824L9.68433 11.84L5.43078 13.3801C2.7392 14.3543 1.34688 17.3261 2.32106 20.0176L2.69322 21.0465L9.56173 14.8403L7.02558 18.5859C5.42092 20.9568 6.04155 24.1792 8.41133 25.7839L9.31655 26.3969L11.2255 17.3392L11.3755 21.8609C11.4707 24.7222 13.8667 26.9639 16.728 26.8697L17.8215 26.8336L14.0419 18.3834L16.821 21.9529C18.58 24.2121 21.8364 24.6171 24.0945 22.8592L24.957 22.1871L16.9327 17.5734L21.2793 18.8278C24.0299 19.6214 26.9032 18.0353 27.6968 15.2858L28 14.235ZM14.4709 15.6809C14.0167 15.7291 13.5592 15.6327 13.1629 15.4051C12.7667 15.1774 12.4525 14.8304 12.2664 14.4134C12.0804 13.9963 12.03 13.5311 12.1242 13.0835C12.2183 12.6369 12.4514 12.2308 12.7908 11.9243C13.1301 11.6178 13.557 11.4273 14.0112 11.3781C14.4655 11.3299 14.923 11.4263 15.3192 11.6539C15.7155 11.8816 16.0296 12.2286 16.2157 12.6456C16.4018 13.0627 16.4521 13.5279 16.358 13.9755C16.2639 14.4221 16.0307 14.8282 15.6914 15.1347C15.3521 15.4412 14.9252 15.6316 14.4709 15.6809Z" fill="white"/>
</svg>
